<svg width="70" height="72" viewBox="0 0 70 72" fill="none" xmlns="http://www.w3.org/2000/svg">
<g filter="url(#filter0_d_15:959)">
<rect x="8.57143" y="17.0714" width="13.5714" height="26.9643" rx="3.75424" fill="white" stroke="black" stroke-width="2.85714"/>
<rect x="47.8571" y="17.0714" width="13.5714" height="26.9643" rx="3.75424" fill="white" stroke="black" stroke-width="2.85714"/>
<path d="M52.7409 24.4848C52.7409 33.7106 44.7358 41.3624 34.6412 41.3624C24.5465 41.3624 16.5414 33.7106 16.5414 24.4848C16.5414 15.2589 24.5465 7.60714 34.6412 7.60714C44.7358 7.60714 52.7409 15.2589 52.7409 24.4848Z" fill="white" stroke="black" stroke-width="3.21429"/>
<path d="M15.4544 61.3298C16.0317 61.3298 16.452 61.0275 16.7002 60.7792C16.9521 60.5272 17.1428 60.2195 17.2892 59.9333C17.5852 59.3544 17.8246 58.6124 18.0134 57.8533C18.3933 56.3252 18.6321 54.4606 18.6321 53.0574C18.6321 52.3559 18.5732 51.756 18.4248 51.2583C18.2711 50.7431 18.0004 50.2719 17.5416 49.946C17.0982 49.6311 16.6248 49.5579 16.2906 49.5372C16.0898 49.5247 15.8144 49.5307 15.6235 49.5348C15.5529 49.5363 15.4939 49.5375 15.4544 49.5375C15.4117 49.5375 15.349 49.5362 15.2743 49.5347C15.0764 49.5306 14.7944 49.5247 14.5772 49.5367C14.2289 49.5559 13.7571 49.6214 13.3009 49.887C12.2801 50.4813 11.9611 51.6548 11.9611 53.0574C11.9611 54.4984 12.2907 56.3852 12.7539 57.9123C12.9853 58.6753 13.2692 59.4133 13.5988 59.9859C13.762 60.2693 13.9667 60.5661 14.2233 60.8066C14.4706 61.0383 14.8887 61.3298 15.4544 61.3298Z" fill="white" stroke="black" stroke-width="2.41071"/>
<path d="M54.6616 61.3298C55.2389 61.3298 55.6592 61.0275 55.9074 60.7792C56.1593 60.5272 56.3501 60.2195 56.4964 59.9333C56.7924 59.3544 57.0318 58.6124 57.2206 57.8533C57.6005 56.3252 57.8393 54.4606 57.8393 53.0574C57.8393 52.3559 57.7804 51.756 57.632 51.2583C57.4783 50.7431 57.2077 50.2719 56.7488 49.946C56.3055 49.6311 55.832 49.5579 55.4978 49.5372C55.297 49.5247 55.0217 49.5307 54.8307 49.5348C54.7601 49.5363 54.7011 49.5375 54.6616 49.5375C54.6189 49.5375 54.5562 49.5362 54.4815 49.5347C54.2836 49.5306 54.0016 49.5247 53.7844 49.5367C53.4361 49.5559 52.9643 49.6214 52.5081 49.887C51.4873 50.4813 51.1683 51.6548 51.1683 53.0574C51.1683 54.4984 51.4979 56.3852 51.9611 57.9123C52.1925 58.6753 52.4764 59.4133 52.806 59.9859C52.9692 60.2693 53.1739 60.5661 53.4306 60.8066C53.6778 61.0383 54.0959 61.3298 54.6616 61.3298Z" fill="white" stroke="black" stroke-width="2.41071"/>
<ellipse cx="30.6712" cy="18.9557" rx="2.27679" ry="2.09891" transform="rotate(-2 30.6712 18.9557)" fill="black"/>
<ellipse cx="38.5631" cy="18.649" rx="2.27679" ry="2.09891" transform="rotate(-2 38.5631 18.649)" fill="black"/>
<path d="M35.4797 32.5937C37.6216 32.5189 39.6035 32.19 41.087 31.6869C41.8204 31.4382 42.5075 31.1219 43.0359 30.7178C43.5308 30.3394 44.1469 29.6741 44.1136 28.7185C44.0802 27.763 43.4192 27.1423 42.899 26.7993C42.3437 26.4331 41.6363 26.1655 40.8873 25.9685C39.3723 25.5701 37.3724 25.3804 35.2304 25.4552C33.0885 25.5299 31.1066 25.8588 29.6231 26.3619C28.8897 26.6106 28.2026 26.9269 27.6743 27.331C27.1793 27.7094 26.5632 28.3747 26.5965 29.3303C26.6299 30.2859 27.2909 30.9065 27.8111 31.2495C28.3664 31.6157 29.0739 31.8833 29.8228 32.0803C31.3378 32.4787 33.3378 32.6685 35.4797 32.5937Z" stroke="black" stroke-width="2.67857"/>
</g>
<defs>
<filter id="filter0_d_15:959" x="0.892822" y="2.42857" width="68.2144" height="69.0352" filterUnits="userSpaceOnUse" color-interpolation-filters="sRGB">
<feFlood flood-opacity="0" result="BackgroundImageFix"/>
<feColorMatrix in="SourceAlpha" type="matrix" values="0 0 0 0 0 0 0 0 0 0 0 0 0 0 0 0 0 0 127 0" result="hardAlpha"/>
<feOffset dy="2.67857"/>
<feGaussianBlur stdDeviation="3.125"/>
<feComposite in2="hardAlpha" operator="out"/>
<feColorMatrix type="matrix" values="0 0 0 0 0 0 0 0 0 0 0 0 0 0 0 0 0 0 0.1 0"/>
<feBlend mode="normal" in2="BackgroundImageFix" result="effect1_dropShadow_15:959"/>
<feBlend mode="normal" in="SourceGraphic" in2="effect1_dropShadow_15:959" result="shape"/>
</filter>
</defs>
</svg>
